<svg xmlns="http://www.w3.org/2000/svg" width="139" height="158">
    <defs>
        <style>
            .cls-1{fill:#fff}.cls-2{fill:#2f3a3e}
        </style>
    </defs>
    <title>
        Asset 1
    </title>
    <g id="Layer_2" data-name="Layer 2">
        <g id="Layer_1-2" data-name="Layer 1">
            <path class="cls-1" d="M128.79 32.3L78.85 2.65a18.81 18.81 0 0 0-19.27 0L9.63 32.3A19.92 19.92 0 0 0 0 49.46v59.29a19.92 19.92 0 0 0 9.63 17.15l49.94 29.64a18.82 18.82 0 0 0 19.27 0l49.94-29.64a19.92 19.92 0 0 0 9.64-17.16V49.46a19.92 19.92 0 0 0-9.63-17.16z"/>
            <path class="cls-2" d="M128.79 32.3L78.85 2.65a18.81 18.81 0 0 0-19.27 0L9.63 32.3A19.92 19.92 0 0 0 0 49.46v59.29a19.92 19.92 0 0 0 9.63 17.15l49.94 29.64a18.82 18.82 0 0 0 19.27 0l49.94-29.64a19.92 19.92 0 0 0 9.64-17.16V49.46a19.92 19.92 0 0 0-9.63-17.16zM61.32 152.51l-49.94-29.64a16.44 16.44 0 0 1-7.92-14.12V49.46a16.43 16.43 0 0 1 7.92-14.12L61.32 5.69a15.4 15.4 0 0 1 15.78 0L127 35.34a16.33 16.33 0 0 1 7.67 11.42c-1.66-3.53-5.39-4.5-9.74-2L77.72 74c-5.89 3.43-10.23 7.3-10.24 14.4v58.22c0 4.25 1.71 7 4.35 7.81a15.3 15.3 0 0 1-2.62.25 15.47 15.47 0 0 1-7.89-2.17z"/>
            <path d="M115.7 114.48l-12.44 7.44a.91.91 0 0 0-.57.81V126c0 .4.27.56.6.37l12.63-7.68a1 1 0 0 0 .38-1v-2.87c-.01-.37-.3-.53-.6-.34z" style="fill:#3ab14a"/>
            <path class="cls-1" d="M89.22 87.09c.4-.2.73 0 .74.57L90 92a8 8 0 0 1 4.78-.58c.31.08.44.5.32 1l-.95 3.81a1.64 1.64 0 0 1-.43.76 1 1 0 0 1-.25.18.57.57 0 0 1-.37.06 6.34 6.34 0 0 0-4.61.74 5.79 5.79 0 0 0-3.41 5.13c0 2 1 2.55 4.49 2.61 4.61.08 6.61 2.09 6.66 6.74a16.53 16.53 0 0 1-6.12 12.47l.08 4.26a1.56 1.56 0 0 1-.73 1.3l-2.52 1.45c-.4.2-.73 0-.74-.56v-4.19c-2.16.9-4.35 1.11-5.75.55-.26-.1-.38-.49-.27-.94l.91-3.85a1.61 1.61 0 0 1 .45-.8 1 1 0 0 1 .24-.17.5.5 0 0 1 .41 0 7 7 0 0 0 5.29-.67 6.92 6.92 0 0 0 3.91-6c0-2.16-1.19-3.06-4-3.08-3.63 0-7-.7-7.07-6a15.5 15.5 0 0 1 5.86-11.86L86 90a1.55 1.55 0 0 1 .73-1.32z"/>
        </g>
    </g>
</svg>
